<svg width="189" height="70" viewBox="0 0 189 70" fill="none" xmlns="http://www.w3.org/2000/svg">
<rect width="189" height="70" rx="20" fill="black"/>
<path d="M44.9688 52.025C43.1313 53.8063 41.1251 53.525 39.1938 52.6813C37.1501 51.8188 35.2751 51.7812 33.1188 52.6813C30.4188 53.8438 28.9938 53.5063 27.3813 52.025C18.2313 42.5938 19.5813 28.2313 29.9688 27.7063C32.5001 27.8375 34.2626 29.0938 35.7438 29.2063C37.9563 28.7563 40.0751 27.4625 42.4376 27.6313C45.2688 27.8563 47.4063 28.9812 48.8126 31.0063C42.9626 34.5125 44.3501 42.2188 49.7126 44.375C48.6438 47.1875 47.2563 49.9813 44.9501 52.0438L44.9688 52.025ZM35.5563 27.5938C35.2751 23.4125 38.6688 19.9625 42.5688 19.625C43.1126 24.4625 38.1813 28.0625 35.5563 27.5938Z" fill="white"/>
<path d="M61.724 29L59.36 20.24H60.572L62.624 28.232L62.06 27.944H63.488L62.864 28.232L64.532 20.6H65.636L63.728 29H61.724ZM66.992 29L64.892 20.6H66.032L67.916 28.232L67.316 27.944H68.756L68.144 28.232L69.98 20.24H71.156L69.008 29H66.992ZM72.791 29V22.592H73.943V29H72.791ZM71.807 23.504V22.592H73.943V23.504H71.807ZM73.115 21.56C72.859 21.56 72.667 21.492 72.539 21.356C72.419 21.22 72.359 21.048 72.359 20.84C72.359 20.632 72.419 20.46 72.539 20.324C72.667 20.188 72.859 20.12 73.115 20.12C73.371 20.12 73.559 20.188 73.679 20.324C73.807 20.46 73.871 20.632 73.871 20.84C73.871 21.048 73.807 21.22 73.679 21.356C73.559 21.492 73.371 21.56 73.115 21.56ZM76.2424 29V20.24H77.3944V29H76.2424ZM75.3544 21.152V20.24H77.3944V21.152H75.3544ZM79.676 29V20.24H80.828V29H79.676ZM78.788 21.152V20.24H80.828V21.152H78.788ZM89.1521 29.216C88.6241 29.216 88.1521 29.1 87.7361 28.868C87.3281 28.636 87.0041 28.3 86.7641 27.86C86.5241 27.412 86.3921 26.876 86.3681 26.252H86.6801V29H85.7681V20.24H86.9201V24.5L86.5121 25.376C86.5441 24.68 86.6841 24.112 86.9321 23.672C87.1801 23.232 87.5041 22.908 87.9041 22.7C88.3121 22.484 88.7601 22.376 89.2481 22.376C89.7041 22.376 90.1201 22.464 90.4961 22.64C90.8721 22.808 91.1961 23.044 91.4681 23.348C91.7401 23.644 91.9481 23.992 92.0921 24.392C92.2361 24.784 92.3081 25.208 92.3081 25.664V25.88C92.3081 26.336 92.2321 26.764 92.0801 27.164C91.9361 27.564 91.7241 27.92 91.4441 28.232C91.1641 28.536 90.8281 28.776 90.4361 28.952C90.0521 29.128 89.6241 29.216 89.1521 29.216ZM89.0201 28.208C89.4521 28.208 89.8281 28.104 90.1481 27.896C90.4681 27.688 90.7161 27.404 90.8921 27.044C91.0681 26.676 91.1561 26.252 91.1561 25.772C91.1561 25.292 91.0641 24.872 90.8801 24.512C90.7041 24.152 90.4561 23.876 90.1361 23.684C89.8161 23.484 89.4441 23.384 89.0201 23.384C88.6361 23.384 88.2801 23.472 87.9521 23.648C87.6241 23.816 87.3601 24.064 87.1601 24.392C86.9681 24.712 86.8721 25.1 86.8721 25.556V26.108C86.8721 26.548 86.9721 26.924 87.1721 27.236C87.3721 27.548 87.6361 27.788 87.9641 27.956C88.2921 28.124 88.6441 28.208 89.0201 28.208ZM96.7655 29.216C96.2055 29.216 95.7215 29.12 95.3135 28.928C94.9055 28.736 94.5735 28.484 94.3175 28.172C94.0615 27.852 93.8695 27.496 93.7415 27.104C93.6215 26.712 93.5615 26.312 93.5615 25.904V25.688C93.5615 25.272 93.6215 24.868 93.7415 24.476C93.8695 24.084 94.0615 23.732 94.3175 23.42C94.5735 23.1 94.8975 22.848 95.2895 22.664C95.6895 22.472 96.1575 22.376 96.6935 22.376C97.3895 22.376 97.9615 22.528 98.4095 22.832C98.8655 23.128 99.2015 23.512 99.4175 23.984C99.6415 24.456 99.7535 24.96 99.7535 25.496V26.012H94.0655V25.148H98.9135L98.6495 25.616C98.6495 25.16 98.5775 24.768 98.4335 24.44C98.2895 24.104 98.0735 23.844 97.7855 23.66C97.4975 23.476 97.1335 23.384 96.6935 23.384C96.2375 23.384 95.8575 23.488 95.5535 23.696C95.2575 23.904 95.0335 24.188 94.8815 24.548C94.7375 24.908 94.6655 25.324 94.6655 25.796C94.6655 26.252 94.7375 26.664 94.8815 27.032C95.0335 27.392 95.2655 27.68 95.5775 27.896C95.8895 28.104 96.2855 28.208 96.7655 28.208C97.2695 28.208 97.6775 28.096 97.9895 27.872C98.3095 27.648 98.5015 27.388 98.5655 27.092H99.6455C99.5575 27.532 99.3815 27.912 99.1175 28.232C98.8535 28.552 98.5215 28.796 98.1215 28.964C97.7215 29.132 97.2695 29.216 96.7655 29.216ZM107.996 29V27.08H107.804V24.86C107.804 24.42 107.688 24.088 107.456 23.864C107.232 23.64 106.9 23.528 106.46 23.528C106.212 23.528 105.956 23.532 105.692 23.54C105.428 23.548 105.176 23.556 104.936 23.564C104.696 23.572 104.488 23.584 104.312 23.6V22.592C104.488 22.576 104.672 22.564 104.864 22.556C105.064 22.54 105.268 22.532 105.476 22.532C105.684 22.524 105.884 22.52 106.076 22.52C106.732 22.52 107.268 22.6 107.684 22.76C108.1 22.912 108.408 23.164 108.608 23.516C108.808 23.868 108.908 24.344 108.908 24.944V29H107.996ZM105.896 29.168C105.416 29.168 105 29.088 104.648 28.928C104.304 28.76 104.036 28.52 103.844 28.208C103.66 27.896 103.568 27.52 103.568 27.08C103.568 26.624 103.668 26.244 103.868 25.94C104.076 25.636 104.376 25.408 104.768 25.256C105.16 25.096 105.632 25.016 106.184 25.016H107.924V25.88H106.136C105.672 25.88 105.316 25.992 105.068 26.216C104.82 26.44 104.696 26.728 104.696 27.08C104.696 27.432 104.82 27.716 105.068 27.932C105.316 28.148 105.672 28.256 106.136 28.256C106.408 28.256 106.668 28.208 106.916 28.112C107.164 28.008 107.368 27.84 107.528 27.608C107.696 27.368 107.788 27.04 107.804 26.624L108.116 27.08C108.076 27.536 107.964 27.92 107.78 28.232C107.604 28.536 107.356 28.768 107.036 28.928C106.724 29.088 106.344 29.168 105.896 29.168ZM112.367 29L110.183 22.592H111.383L113.519 29H112.367ZM112.655 29V28.088H114.047V29H112.655ZM113.207 29L115.067 22.592H116.195L114.299 29H113.207ZM121.531 29V27.08H121.339V24.86C121.339 24.42 121.223 24.088 120.991 23.864C120.767 23.64 120.435 23.528 119.995 23.528C119.747 23.528 119.491 23.532 119.227 23.54C118.963 23.548 118.711 23.556 118.471 23.564C118.231 23.572 118.023 23.584 117.847 23.6V22.592C118.023 22.576 118.207 22.564 118.399 22.556C118.599 22.54 118.803 22.532 119.011 22.532C119.219 22.524 119.419 22.52 119.611 22.52C120.267 22.52 120.803 22.6 121.219 22.76C121.635 22.912 121.943 23.164 122.143 23.516C122.343 23.868 122.443 24.344 122.443 24.944V29H121.531ZM119.431 29.168C118.951 29.168 118.535 29.088 118.183 28.928C117.839 28.76 117.571 28.52 117.379 28.208C117.195 27.896 117.103 27.52 117.103 27.08C117.103 26.624 117.203 26.244 117.403 25.94C117.611 25.636 117.911 25.408 118.303 25.256C118.695 25.096 119.167 25.016 119.719 25.016H121.459V25.88H119.671C119.207 25.88 118.851 25.992 118.603 26.216C118.355 26.44 118.231 26.728 118.231 27.08C118.231 27.432 118.355 27.716 118.603 27.932C118.851 28.148 119.207 28.256 119.671 28.256C119.943 28.256 120.203 28.208 120.451 28.112C120.699 28.008 120.903 27.84 121.063 27.608C121.231 27.368 121.323 27.04 121.339 26.624L121.651 27.08C121.611 27.536 121.499 27.92 121.315 28.232C121.139 28.536 120.891 28.768 120.571 28.928C120.259 29.088 119.879 29.168 119.431 29.168ZM124.869 29V22.592H126.021V29H124.869ZM123.885 23.504V22.592H126.021V23.504H123.885ZM125.193 21.56C124.937 21.56 124.745 21.492 124.617 21.356C124.497 21.22 124.437 21.048 124.437 20.84C124.437 20.632 124.497 20.46 124.617 20.324C124.745 20.188 124.937 20.12 125.193 20.12C125.449 20.12 125.637 20.188 125.757 20.324C125.885 20.46 125.949 20.632 125.949 20.84C125.949 21.048 125.885 21.22 125.757 21.356C125.637 21.492 125.449 21.56 125.193 21.56ZM128.321 29V20.24H129.473V29H128.321ZM127.433 21.152V20.24H129.473V21.152H127.433ZM135.558 29V27.08H135.366V24.86C135.366 24.42 135.25 24.088 135.018 23.864C134.794 23.64 134.462 23.528 134.022 23.528C133.774 23.528 133.518 23.532 133.254 23.54C132.99 23.548 132.738 23.556 132.498 23.564C132.258 23.572 132.05 23.584 131.874 23.6V22.592C132.05 22.576 132.234 22.564 132.426 22.556C132.626 22.54 132.83 22.532 133.038 22.532C133.246 22.524 133.446 22.52 133.638 22.52C134.294 22.52 134.83 22.6 135.246 22.76C135.662 22.912 135.97 23.164 136.17 23.516C136.37 23.868 136.47 24.344 136.47 24.944V29H135.558ZM133.458 29.168C132.978 29.168 132.562 29.088 132.21 28.928C131.866 28.76 131.598 28.52 131.406 28.208C131.222 27.896 131.13 27.52 131.13 27.08C131.13 26.624 131.23 26.244 131.43 25.94C131.638 25.636 131.938 25.408 132.33 25.256C132.722 25.096 133.194 25.016 133.746 25.016H135.486V25.88H133.698C133.234 25.88 132.878 25.992 132.63 26.216C132.382 26.44 132.258 26.728 132.258 27.08C132.258 27.432 132.382 27.716 132.63 27.932C132.878 28.148 133.234 28.256 133.698 28.256C133.97 28.256 134.23 28.208 134.478 28.112C134.726 28.008 134.93 27.84 135.09 27.608C135.258 27.368 135.35 27.04 135.366 26.624L135.678 27.08C135.638 27.536 135.526 27.92 135.342 28.232C135.166 28.536 134.918 28.768 134.598 28.928C134.286 29.088 133.906 29.168 133.458 29.168ZM141.968 29.216C141.44 29.216 140.968 29.1 140.552 28.868C140.144 28.636 139.82 28.3 139.58 27.86C139.34 27.412 139.208 26.876 139.184 26.252H139.496V29H138.584V20.24H139.736V24.5L139.328 25.376C139.36 24.68 139.5 24.112 139.748 23.672C139.996 23.232 140.32 22.908 140.72 22.7C141.128 22.484 141.576 22.376 142.064 22.376C142.52 22.376 142.936 22.464 143.312 22.64C143.688 22.808 144.012 23.044 144.284 23.348C144.556 23.644 144.764 23.992 144.908 24.392C145.052 24.784 145.124 25.208 145.124 25.664V25.88C145.124 26.336 145.048 26.764 144.896 27.164C144.752 27.564 144.54 27.92 144.26 28.232C143.98 28.536 143.644 28.776 143.252 28.952C142.868 29.128 142.44 29.216 141.968 29.216ZM141.836 28.208C142.268 28.208 142.644 28.104 142.964 27.896C143.284 27.688 143.532 27.404 143.708 27.044C143.884 26.676 143.972 26.252 143.972 25.772C143.972 25.292 143.88 24.872 143.696 24.512C143.52 24.152 143.272 23.876 142.952 23.684C142.632 23.484 142.26 23.384 141.836 23.384C141.452 23.384 141.096 23.472 140.768 23.648C140.44 23.816 140.176 24.064 139.976 24.392C139.784 24.712 139.688 25.1 139.688 25.556V26.108C139.688 26.548 139.788 26.924 139.988 27.236C140.188 27.548 140.452 27.788 140.78 27.956C141.108 28.124 141.46 28.208 141.836 28.208ZM146.93 29V20.24H148.082V29H146.93ZM146.042 21.152V20.24H148.082V21.152H146.042ZM153.016 29.216C152.456 29.216 151.972 29.12 151.564 28.928C151.156 28.736 150.824 28.484 150.568 28.172C150.312 27.852 150.12 27.496 149.992 27.104C149.872 26.712 149.812 26.312 149.812 25.904V25.688C149.812 25.272 149.872 24.868 149.992 24.476C150.12 24.084 150.312 23.732 150.568 23.42C150.824 23.1 151.148 22.848 151.54 22.664C151.94 22.472 152.408 22.376 152.944 22.376C153.64 22.376 154.212 22.528 154.66 22.832C155.116 23.128 155.452 23.512 155.668 23.984C155.892 24.456 156.004 24.96 156.004 25.496V26.012H150.316V25.148H155.164L154.9 25.616C154.9 25.16 154.828 24.768 154.684 24.44C154.54 24.104 154.324 23.844 154.036 23.66C153.748 23.476 153.384 23.384 152.944 23.384C152.488 23.384 152.108 23.488 151.804 23.696C151.508 23.904 151.284 24.188 151.132 24.548C150.988 24.908 150.916 25.324 150.916 25.796C150.916 26.252 150.988 26.664 151.132 27.032C151.284 27.392 151.516 27.68 151.828 27.896C152.14 28.104 152.536 28.208 153.016 28.208C153.52 28.208 153.928 28.096 154.24 27.872C154.56 27.648 154.752 27.388 154.816 27.092H155.896C155.808 27.532 155.632 27.912 155.368 28.232C155.104 28.552 154.772 28.796 154.372 28.964C153.972 29.132 153.52 29.216 153.016 29.216ZM163.322 29.216C162.762 29.216 162.27 29.12 161.846 28.928C161.422 28.736 161.062 28.484 160.766 28.172C160.478 27.852 160.258 27.496 160.106 27.104C159.962 26.712 159.89 26.312 159.89 25.904V25.688C159.89 25.28 159.966 24.88 160.118 24.488C160.27 24.088 160.494 23.732 160.79 23.42C161.086 23.1 161.446 22.848 161.87 22.664C162.294 22.472 162.778 22.376 163.322 22.376C163.866 22.376 164.35 22.472 164.774 22.664C165.198 22.848 165.558 23.1 165.854 23.42C166.15 23.732 166.374 24.088 166.526 24.488C166.678 24.88 166.754 25.28 166.754 25.688V25.904C166.754 26.312 166.678 26.712 166.526 27.104C166.382 27.496 166.162 27.852 165.866 28.172C165.578 28.484 165.222 28.736 164.798 28.928C164.374 29.12 163.882 29.216 163.322 29.216ZM163.322 28.184C163.802 28.184 164.21 28.08 164.546 27.872C164.89 27.656 165.15 27.368 165.326 27.008C165.51 26.648 165.602 26.244 165.602 25.796C165.602 25.34 165.51 24.932 165.326 24.572C165.142 24.212 164.878 23.928 164.534 23.72C164.198 23.512 163.794 23.408 163.322 23.408C162.858 23.408 162.454 23.512 162.11 23.72C161.766 23.928 161.502 24.212 161.318 24.572C161.134 24.932 161.042 25.34 161.042 25.796C161.042 26.244 161.13 26.648 161.306 27.008C161.49 27.368 161.75 27.656 162.086 27.872C162.43 28.08 162.842 28.184 163.322 28.184ZM168.479 29V22.592H169.391V25.34H169.247C169.247 24.708 169.331 24.176 169.499 23.744C169.675 23.304 169.939 22.972 170.291 22.748C170.643 22.516 171.087 22.4 171.623 22.4H171.671C172.479 22.4 173.075 22.652 173.459 23.156C173.851 23.66 174.047 24.388 174.047 25.34V29H172.895V25.1C172.895 24.604 172.755 24.208 172.475 23.912C172.195 23.608 171.811 23.456 171.323 23.456C170.819 23.456 170.411 23.612 170.099 23.924C169.787 24.236 169.631 24.652 169.631 25.172V29H168.479Z" fill="white"/>
<path d="M59.208 51L63.064 39.32H67.304L71.304 51H68.584L65.352 41.128L66.184 41.464H64.12L64.984 41.128L61.832 51H59.208ZM62.136 48.104L62.936 45.928H67.512L68.328 48.104H62.136ZM76.7636 54.2V42.232H78.7956V46.024L78.5236 46.008C78.5663 45.1333 78.7476 44.3973 79.0676 43.8C79.3876 43.192 79.8196 42.7387 80.3636 42.44C80.9076 42.1307 81.521 41.976 82.2036 41.976C82.8116 41.976 83.361 42.088 83.8516 42.312C84.353 42.536 84.7796 42.8507 85.1316 43.256C85.4943 43.6507 85.7663 44.12 85.9476 44.664C86.1396 45.1973 86.2356 45.784 86.2356 46.424V46.792C86.2356 47.4213 86.145 48.0133 85.9636 48.568C85.7823 49.112 85.5156 49.5867 85.1636 49.992C84.8223 50.3973 84.401 50.7173 83.8996 50.952C83.409 51.176 82.8436 51.288 82.2036 51.288C81.5423 51.288 80.945 51.1547 80.4116 50.888C79.889 50.6107 79.4676 50.1947 79.1476 49.64C78.8276 49.0747 78.6516 48.36 78.6196 47.496L79.3236 48.456V54.2H76.7636ZM81.4836 49.144C81.921 49.144 82.2996 49.0373 82.6196 48.824C82.9503 48.6107 83.2063 48.312 83.3876 47.928C83.569 47.544 83.6596 47.1013 83.6596 46.6C83.6596 46.0987 83.569 45.6613 83.3876 45.288C83.2063 44.9147 82.9556 44.6267 82.6356 44.424C82.3156 44.2107 81.9316 44.104 81.4836 44.104C81.0996 44.104 80.737 44.1947 80.3956 44.376C80.0543 44.5573 79.777 44.8187 79.5636 45.16C79.361 45.4907 79.2596 45.896 79.2596 46.376V46.968C79.2596 47.4267 79.3663 47.8213 79.5796 48.152C79.8036 48.472 80.0863 48.7173 80.4276 48.888C80.769 49.0587 81.121 49.144 81.4836 49.144ZM92.0936 54.2V42.232H94.1256V46.024L93.8536 46.008C93.8963 45.1333 94.0776 44.3973 94.3976 43.8C94.7176 43.192 95.1496 42.7387 95.6936 42.44C96.2376 42.1307 96.851 41.976 97.5336 41.976C98.1416 41.976 98.691 42.088 99.1816 42.312C99.683 42.536 100.11 42.8507 100.462 43.256C100.824 43.6507 101.096 44.12 101.278 44.664C101.47 45.1973 101.566 45.784 101.566 46.424V46.792C101.566 47.4213 101.475 48.0133 101.294 48.568C101.112 49.112 100.846 49.5867 100.494 49.992C100.152 50.3973 99.731 50.7173 99.2296 50.952C98.739 51.176 98.1736 51.288 97.5336 51.288C96.8723 51.288 96.275 51.1547 95.7416 50.888C95.219 50.6107 94.7976 50.1947 94.4776 49.64C94.1576 49.0747 93.9816 48.36 93.9496 47.496L94.6536 48.456V54.2H92.0936ZM96.8136 49.144C97.251 49.144 97.6296 49.0373 97.9496 48.824C98.2803 48.6107 98.5363 48.312 98.7176 47.928C98.899 47.544 98.9896 47.1013 98.9896 46.6C98.9896 46.0987 98.899 45.6613 98.7176 45.288C98.5363 44.9147 98.2856 44.6267 97.9656 44.424C97.6456 44.2107 97.2616 44.104 96.8136 44.104C96.4296 44.104 96.067 44.1947 95.7256 44.376C95.3843 44.5573 95.107 44.8187 94.8936 45.16C94.691 45.4907 94.5896 45.896 94.5896 46.376V46.968C94.5896 47.4267 94.6963 47.8213 94.9096 48.152C95.1336 48.472 95.4163 48.7173 95.7576 48.888C96.099 49.0587 96.451 49.144 96.8136 49.144ZM119.071 51.304C118.015 51.304 117.124 51.1387 116.399 50.808C115.674 50.4667 115.124 50.008 114.751 49.432C114.378 48.8453 114.191 48.1733 114.191 47.416H116.735C116.735 47.7147 116.815 47.992 116.975 48.248C117.146 48.504 117.402 48.712 117.743 48.872C118.084 49.0213 118.527 49.096 119.071 49.096C119.562 49.096 119.972 49.032 120.303 48.904C120.634 48.776 120.884 48.6 121.055 48.376C121.226 48.1413 121.311 47.8747 121.311 47.576C121.311 47.2027 121.151 46.9093 120.831 46.696C120.511 46.472 119.994 46.328 119.279 46.264L118.399 46.184C117.236 46.088 116.308 45.7253 115.615 45.096C114.922 44.4667 114.575 43.6347 114.575 42.6C114.575 41.8533 114.751 41.208 115.103 40.664C115.466 40.12 115.967 39.704 116.607 39.416C117.247 39.1173 118.004 38.968 118.879 38.968C119.796 38.968 120.58 39.128 121.231 39.448C121.892 39.7573 122.399 40.2 122.751 40.776C123.103 41.3413 123.279 42.008 123.279 42.776H120.719C120.719 42.488 120.65 42.2267 120.511 41.992C120.372 41.7467 120.164 41.5493 119.887 41.4C119.62 41.2507 119.284 41.176 118.879 41.176C118.495 41.176 118.17 41.24 117.903 41.368C117.647 41.496 117.455 41.672 117.327 41.896C117.199 42.1093 117.135 42.344 117.135 42.6C117.135 42.9307 117.252 43.2187 117.487 43.464C117.722 43.7093 118.106 43.8533 118.639 43.896L119.535 43.976C120.388 44.0507 121.14 44.2373 121.791 44.536C122.442 44.824 122.948 45.224 123.311 45.736C123.684 46.2373 123.871 46.8507 123.871 47.576C123.871 48.3227 123.674 48.9787 123.279 49.544C122.895 50.0987 122.346 50.5307 121.631 50.84C120.916 51.1493 120.063 51.304 119.071 51.304ZM133.599 51.112C132.714 51.112 131.999 51.0053 131.455 50.792C130.911 50.568 130.511 50.2 130.255 49.688C130.01 49.1653 129.887 48.4613 129.887 47.576V39.864H132.271V47.672C132.271 48.088 132.378 48.408 132.591 48.632C132.815 48.8453 133.13 48.952 133.535 48.952H134.831V51.112H133.599ZM128.559 44.104V42.232H134.831V44.104H128.559ZM144.873 51.304C144.105 51.304 143.422 51.1867 142.825 50.952C142.228 50.7067 141.721 50.376 141.305 49.96C140.9 49.544 140.59 49.0693 140.377 48.536C140.164 47.992 140.057 47.4213 140.057 46.824V46.456C140.057 45.848 140.164 45.272 140.377 44.728C140.601 44.1733 140.921 43.688 141.337 43.272C141.764 42.856 142.276 42.5307 142.873 42.296C143.47 42.0507 144.137 41.928 144.873 41.928C145.63 41.928 146.302 42.0507 146.889 42.296C147.486 42.5307 147.993 42.856 148.409 43.272C148.825 43.688 149.145 44.1733 149.369 44.728C149.593 45.272 149.705 45.848 149.705 46.456V46.824C149.705 47.4213 149.598 47.992 149.385 48.536C149.172 49.0693 148.857 49.544 148.441 49.96C148.036 50.376 147.534 50.7067 146.937 50.952C146.34 51.1867 145.652 51.304 144.873 51.304ZM144.873 49.144C145.374 49.144 145.79 49.0373 146.121 48.824C146.452 48.6107 146.702 48.312 146.873 47.928C147.054 47.544 147.145 47.1173 147.145 46.648C147.145 46.1467 147.054 45.7093 146.873 45.336C146.692 44.952 146.43 44.648 146.089 44.424C145.758 44.2 145.353 44.088 144.873 44.088C144.404 44.088 143.998 44.2 143.657 44.424C143.316 44.648 143.054 44.952 142.873 45.336C142.702 45.7093 142.617 46.1467 142.617 46.648C142.617 47.1173 142.702 47.544 142.873 47.928C143.044 48.312 143.3 48.6107 143.641 48.824C143.982 49.0373 144.393 49.144 144.873 49.144ZM155.572 51V42.232H157.604V45.992H157.556C157.556 44.7547 157.817 43.8 158.34 43.128C158.873 42.456 159.641 42.12 160.644 42.12H160.98V44.328H160.34C159.636 44.328 159.092 44.52 158.708 44.904C158.324 45.2773 158.132 45.8213 158.132 46.536V51H155.572ZM170.355 51.304C169.609 51.304 168.947 51.176 168.371 50.92C167.806 50.664 167.331 50.3227 166.947 49.896C166.574 49.4587 166.286 48.9733 166.083 48.44C165.891 47.896 165.795 47.3413 165.795 46.776V46.456C165.795 45.8693 165.891 45.3093 166.083 44.776C166.286 44.232 166.574 43.7467 166.947 43.32C167.321 42.8933 167.785 42.5573 168.339 42.312C168.905 42.056 169.545 41.928 170.259 41.928C171.198 41.928 171.987 42.1413 172.627 42.568C173.278 42.984 173.774 43.5333 174.115 44.216C174.457 44.888 174.627 45.624 174.627 46.424V47.288H166.867V45.832H173.075L172.243 46.504C172.243 45.9813 172.169 45.5333 172.019 45.16C171.87 44.7867 171.646 44.504 171.347 44.312C171.059 44.1093 170.697 44.008 170.259 44.008C169.811 44.008 169.433 44.1093 169.123 44.312C168.814 44.5147 168.579 44.8133 168.419 45.208C168.259 45.592 168.179 46.0667 168.179 46.632C168.179 47.1547 168.254 47.6133 168.403 48.008C168.553 48.392 168.787 48.6907 169.107 48.904C169.427 49.1173 169.843 49.224 170.355 49.224C170.825 49.224 171.209 49.1333 171.507 48.952C171.806 48.7707 172.009 48.5467 172.115 48.28H174.467C174.339 48.8667 174.089 49.3893 173.715 49.848C173.342 50.3067 172.873 50.664 172.307 50.92C171.742 51.176 171.091 51.304 170.355 51.304Z" fill="white"/>
</svg>
