<svg width="34" height="34" viewBox="0 0 34 34" fill="none" xmlns="http://www.w3.org/2000/svg">
<path fill-rule="evenodd" clip-rule="evenodd" d="M33.751 16.5046C33.751 25.6193 26.361 33.0093 17.2463 33.0093C8.13165 33.0093 0.741699 25.6193 0.741699 16.5046C0.741699 7.38996 8.13165 0 17.2463 0C26.361 0 33.751 7.38996 33.751 16.5046ZM17.8378 12.1846C16.2327 12.8516 13.0239 14.2339 8.2128 16.33C7.43158 16.6408 7.02172 16.9448 6.98458 17.2419C6.92131 17.7452 7.55124 17.9433 8.40673 18.2115C8.52364 18.2486 8.64467 18.2858 8.76846 18.327C9.61157 18.6007 10.7449 18.9212 11.3336 18.9336C11.8686 18.9446 12.4655 18.7245 13.1243 18.2734C17.6191 15.2379 19.9394 13.7044 20.0851 13.6713C20.1883 13.648 20.3313 13.6177 20.4276 13.7044C20.5239 13.7896 20.5143 13.9519 20.5046 13.9959C20.4414 14.2614 17.9739 16.5569 16.6948 17.7452C16.296 18.1152 16.014 18.3779 15.9562 18.4384C15.8269 18.5719 15.6949 18.6998 15.5684 18.8222C14.7844 19.5759 14.1985 20.1425 15.6014 21.0668C16.2753 21.5111 16.8145 21.8783 17.3522 22.2441C17.9395 22.6444 18.5255 23.0432 19.2847 23.5411C19.4772 23.6677 19.6615 23.7983 19.8417 23.9262C20.5253 24.4145 21.1401 24.8519 21.8993 24.7831C22.3394 24.7418 22.796 24.3278 23.0271 23.0914C23.5731 20.1673 24.6487 13.835 24.8976 11.2245C24.9128 11.0078 24.9035 10.79 24.8701 10.5754C24.8501 10.402 24.7657 10.2424 24.6336 10.1284C24.4369 9.96743 24.1315 9.93305 23.994 9.9358C23.3737 9.9468 22.4219 10.2783 17.8378 12.1846Z" fill="url(#paint0_linear_238_471)"/>
<defs>
<linearGradient id="paint0_linear_238_471" x1="1.24511" y1="4.52352" x2="30.8606" y2="10.0983" gradientUnits="userSpaceOnUse">
<stop offset="0.0420982" stop-color="#FDCE7B"/>
<stop offset="1" stop-color="#CD8D03"/>
</linearGradient>
</defs>
</svg>
