<svg width="34" height="34" viewBox="0 0 34 34" fill="none" xmlns="http://www.w3.org/2000/svg">
<path d="M17.2372 2.06299C9.26206 2.06299 2.79559 8.52946 2.79559 16.5046C2.79559 24.4797 9.26206 30.9461 17.2372 30.9461C25.2123 30.9461 31.6787 24.4797 31.6787 16.5046C31.6787 8.52946 25.2123 2.06299 17.2372 2.06299ZM24.1775 12.949C24.1872 13.1005 24.1872 13.2584 24.1872 13.4132C24.1872 18.1453 20.5832 23.5964 13.9975 23.5964C11.9666 23.5964 10.0841 23.0065 8.49808 21.9911C8.7882 22.0233 9.06542 22.0362 9.36199 22.0362C11.0382 22.0362 12.5791 21.4688 13.8073 20.5082C12.2342 20.476 10.9125 19.4444 10.4612 18.0261C11.0125 18.1067 11.5089 18.1067 12.0762 17.9616C11.2662 17.797 10.5382 17.3571 10.0158 16.7166C9.49338 16.0761 9.20883 15.2745 9.21048 14.4479V14.4028C9.68435 14.6703 10.242 14.8347 10.8255 14.8573C10.335 14.5304 9.93275 14.0876 9.65441 13.568C9.37606 13.0484 9.23022 12.4682 9.22983 11.8787C9.22983 11.2115 9.4039 10.6022 9.71659 10.0735C10.6156 11.1803 11.7375 12.0855 13.0093 12.7303C14.2811 13.3751 15.6744 13.745 17.0985 13.8161C16.5924 11.3823 18.4105 9.41271 20.5961 9.41271C21.6277 9.41271 22.556 9.84467 23.2104 10.541C24.0195 10.3895 24.7932 10.0864 25.483 9.68027C25.2155 10.5087 24.6546 11.2082 23.9099 11.6499C24.632 11.5725 25.3283 11.3726 25.973 11.0922C25.4863 11.8078 24.877 12.4429 24.1775 12.949Z" fill="url(#paint0_linear_238_464)"/>
<defs>
<linearGradient id="paint0_linear_238_464" x1="3.23607" y1="6.02106" x2="29.1497" y2="10.899" gradientUnits="userSpaceOnUse">
<stop offset="0.0420982" stop-color="#FDCE7B"/>
<stop offset="1" stop-color="#CD8D03"/>
</linearGradient>
</defs>
</svg>
