<svg width="205" height="70" viewBox="0 0 205 70" fill="none" xmlns="http://www.w3.org/2000/svg">
<rect width="205" height="70" rx="20" fill="black"/>
<path d="M52.8618 38.0551L46.6567 41.5669L41.0913 36.0363L46.7011 30.4614L52.8618 33.9479C53.2254 34.1535 53.5279 34.452 53.7384 34.8128C53.9489 35.1736 54.0598 35.5838 54.0598 36.0015C54.0598 36.4192 53.9489 36.8294 53.7384 37.1902C53.5279 37.551 53.2254 37.8495 52.8618 38.0551ZM20.1169 18.4629C19.9994 18.7482 19.9392 19.0537 19.9396 19.3622V52.6392C19.9396 52.9827 20.0108 53.3026 20.1359 53.5891L37.798 36.0347L20.1169 18.4629ZM39.4447 34.3991L44.6032 29.2723L23.4625 17.3086C23.0094 17.0482 22.4816 16.9484 21.9647 17.0252L39.4447 34.3991ZM39.4447 37.6719L22.028 54.9825C22.4998 55.0395 22.997 54.9571 23.4625 54.6927L44.5588 42.7544L39.4447 37.6719Z" fill="white"/>
<path d="M69.724 27L67.36 18.24H68.572L70.624 26.232L70.06 25.944H71.488L70.864 26.232L72.532 18.6H73.636L71.728 27H69.724ZM74.992 27L72.892 18.6H74.032L75.916 26.232L75.316 25.944H76.756L76.144 26.232L77.98 18.24H79.156L77.008 27H74.992ZM80.791 27V20.592H81.943V27H80.791ZM79.807 21.504V20.592H81.943V21.504H79.807ZM81.115 19.56C80.859 19.56 80.667 19.492 80.539 19.356C80.419 19.22 80.359 19.048 80.359 18.84C80.359 18.632 80.419 18.46 80.539 18.324C80.667 18.188 80.859 18.12 81.115 18.12C81.371 18.12 81.559 18.188 81.679 18.324C81.807 18.46 81.871 18.632 81.871 18.84C81.871 19.048 81.807 19.22 81.679 19.356C81.559 19.492 81.371 19.56 81.115 19.56ZM84.2424 27V18.24H85.3944V27H84.2424ZM83.3544 19.152V18.24H85.3944V19.152H83.3544ZM87.676 27V18.24H88.828V27H87.676ZM86.788 19.152V18.24H88.828V19.152H86.788ZM97.1521 27.216C96.6241 27.216 96.1521 27.1 95.7361 26.868C95.3281 26.636 95.0041 26.3 94.7641 25.86C94.5241 25.412 94.3921 24.876 94.3681 24.252H94.6801V27H93.7681V18.24H94.9201V22.5L94.5121 23.376C94.5441 22.68 94.6841 22.112 94.9321 21.672C95.1801 21.232 95.5041 20.908 95.9041 20.7C96.3121 20.484 96.7601 20.376 97.2481 20.376C97.7041 20.376 98.1201 20.464 98.4961 20.64C98.8721 20.808 99.1961 21.044 99.4681 21.348C99.7401 21.644 99.9481 21.992 100.092 22.392C100.236 22.784 100.308 23.208 100.308 23.664V23.88C100.308 24.336 100.232 24.764 100.08 25.164C99.9361 25.564 99.7241 25.92 99.4441 26.232C99.1641 26.536 98.8281 26.776 98.4361 26.952C98.0521 27.128 97.6241 27.216 97.1521 27.216ZM97.0201 26.208C97.4521 26.208 97.8281 26.104 98.1481 25.896C98.4681 25.688 98.7161 25.404 98.8921 25.044C99.0681 24.676 99.1561 24.252 99.1561 23.772C99.1561 23.292 99.0641 22.872 98.8801 22.512C98.7041 22.152 98.4561 21.876 98.1361 21.684C97.8161 21.484 97.4441 21.384 97.0201 21.384C96.6361 21.384 96.2801 21.472 95.9521 21.648C95.6241 21.816 95.3601 22.064 95.1601 22.392C94.9681 22.712 94.8721 23.1 94.8721 23.556V24.108C94.8721 24.548 94.9721 24.924 95.1721 25.236C95.3721 25.548 95.6361 25.788 95.9641 25.956C96.2921 26.124 96.6441 26.208 97.0201 26.208ZM104.766 27.216C104.206 27.216 103.722 27.12 103.314 26.928C102.906 26.736 102.574 26.484 102.318 26.172C102.062 25.852 101.87 25.496 101.742 25.104C101.622 24.712 101.562 24.312 101.562 23.904V23.688C101.562 23.272 101.622 22.868 101.742 22.476C101.87 22.084 102.062 21.732 102.318 21.42C102.574 21.1 102.898 20.848 103.29 20.664C103.69 20.472 104.158 20.376 104.694 20.376C105.39 20.376 105.962 20.528 106.41 20.832C106.866 21.128 107.202 21.512 107.418 21.984C107.642 22.456 107.754 22.96 107.754 23.496V24.012H102.066V23.148H106.914L106.65 23.616C106.65 23.16 106.578 22.768 106.434 22.44C106.29 22.104 106.074 21.844 105.786 21.66C105.498 21.476 105.134 21.384 104.694 21.384C104.238 21.384 103.858 21.488 103.554 21.696C103.258 21.904 103.034 22.188 102.882 22.548C102.738 22.908 102.666 23.324 102.666 23.796C102.666 24.252 102.738 24.664 102.882 25.032C103.034 25.392 103.266 25.68 103.578 25.896C103.89 26.104 104.286 26.208 104.766 26.208C105.27 26.208 105.678 26.096 105.99 25.872C106.31 25.648 106.502 25.388 106.566 25.092H107.646C107.558 25.532 107.382 25.912 107.118 26.232C106.854 26.552 106.522 26.796 106.122 26.964C105.722 27.132 105.27 27.216 104.766 27.216ZM115.996 27V25.08H115.804V22.86C115.804 22.42 115.688 22.088 115.456 21.864C115.232 21.64 114.9 21.528 114.46 21.528C114.212 21.528 113.956 21.532 113.692 21.54C113.428 21.548 113.176 21.556 112.936 21.564C112.696 21.572 112.488 21.584 112.312 21.6V20.592C112.488 20.576 112.672 20.564 112.864 20.556C113.064 20.54 113.268 20.532 113.476 20.532C113.684 20.524 113.884 20.52 114.076 20.52C114.732 20.52 115.268 20.6 115.684 20.76C116.1 20.912 116.408 21.164 116.608 21.516C116.808 21.868 116.908 22.344 116.908 22.944V27H115.996ZM113.896 27.168C113.416 27.168 113 27.088 112.648 26.928C112.304 26.76 112.036 26.52 111.844 26.208C111.66 25.896 111.568 25.52 111.568 25.08C111.568 24.624 111.668 24.244 111.868 23.94C112.076 23.636 112.376 23.408 112.768 23.256C113.16 23.096 113.632 23.016 114.184 23.016H115.924V23.88H114.136C113.672 23.88 113.316 23.992 113.068 24.216C112.82 24.44 112.696 24.728 112.696 25.08C112.696 25.432 112.82 25.716 113.068 25.932C113.316 26.148 113.672 26.256 114.136 26.256C114.408 26.256 114.668 26.208 114.916 26.112C115.164 26.008 115.368 25.84 115.528 25.608C115.696 25.368 115.788 25.04 115.804 24.624L116.116 25.08C116.076 25.536 115.964 25.92 115.78 26.232C115.604 26.536 115.356 26.768 115.036 26.928C114.724 27.088 114.344 27.168 113.896 27.168ZM120.367 27L118.183 20.592H119.383L121.519 27H120.367ZM120.655 27V26.088H122.047V27H120.655ZM121.207 27L123.067 20.592H124.195L122.299 27H121.207ZM129.531 27V25.08H129.339V22.86C129.339 22.42 129.223 22.088 128.991 21.864C128.767 21.64 128.435 21.528 127.995 21.528C127.747 21.528 127.491 21.532 127.227 21.54C126.963 21.548 126.711 21.556 126.471 21.564C126.231 21.572 126.023 21.584 125.847 21.6V20.592C126.023 20.576 126.207 20.564 126.399 20.556C126.599 20.54 126.803 20.532 127.011 20.532C127.219 20.524 127.419 20.52 127.611 20.52C128.267 20.52 128.803 20.6 129.219 20.76C129.635 20.912 129.943 21.164 130.143 21.516C130.343 21.868 130.443 22.344 130.443 22.944V27H129.531ZM127.431 27.168C126.951 27.168 126.535 27.088 126.183 26.928C125.839 26.76 125.571 26.52 125.379 26.208C125.195 25.896 125.103 25.52 125.103 25.08C125.103 24.624 125.203 24.244 125.403 23.94C125.611 23.636 125.911 23.408 126.303 23.256C126.695 23.096 127.167 23.016 127.719 23.016H129.459V23.88H127.671C127.207 23.88 126.851 23.992 126.603 24.216C126.355 24.44 126.231 24.728 126.231 25.08C126.231 25.432 126.355 25.716 126.603 25.932C126.851 26.148 127.207 26.256 127.671 26.256C127.943 26.256 128.203 26.208 128.451 26.112C128.699 26.008 128.903 25.84 129.063 25.608C129.231 25.368 129.323 25.04 129.339 24.624L129.651 25.08C129.611 25.536 129.499 25.92 129.315 26.232C129.139 26.536 128.891 26.768 128.571 26.928C128.259 27.088 127.879 27.168 127.431 27.168ZM132.869 27V20.592H134.021V27H132.869ZM131.885 21.504V20.592H134.021V21.504H131.885ZM133.193 19.56C132.937 19.56 132.745 19.492 132.617 19.356C132.497 19.22 132.437 19.048 132.437 18.84C132.437 18.632 132.497 18.46 132.617 18.324C132.745 18.188 132.937 18.12 133.193 18.12C133.449 18.12 133.637 18.188 133.757 18.324C133.885 18.46 133.949 18.632 133.949 18.84C133.949 19.048 133.885 19.22 133.757 19.356C133.637 19.492 133.449 19.56 133.193 19.56ZM136.321 27V18.24H137.473V27H136.321ZM135.433 19.152V18.24H137.473V19.152H135.433ZM143.558 27V25.08H143.366V22.86C143.366 22.42 143.25 22.088 143.018 21.864C142.794 21.64 142.462 21.528 142.022 21.528C141.774 21.528 141.518 21.532 141.254 21.54C140.99 21.548 140.738 21.556 140.498 21.564C140.258 21.572 140.05 21.584 139.874 21.6V20.592C140.05 20.576 140.234 20.564 140.426 20.556C140.626 20.54 140.83 20.532 141.038 20.532C141.246 20.524 141.446 20.52 141.638 20.52C142.294 20.52 142.83 20.6 143.246 20.76C143.662 20.912 143.97 21.164 144.17 21.516C144.37 21.868 144.47 22.344 144.47 22.944V27H143.558ZM141.458 27.168C140.978 27.168 140.562 27.088 140.21 26.928C139.866 26.76 139.598 26.52 139.406 26.208C139.222 25.896 139.13 25.52 139.13 25.08C139.13 24.624 139.23 24.244 139.43 23.94C139.638 23.636 139.938 23.408 140.33 23.256C140.722 23.096 141.194 23.016 141.746 23.016H143.486V23.88H141.698C141.234 23.88 140.878 23.992 140.63 24.216C140.382 24.44 140.258 24.728 140.258 25.08C140.258 25.432 140.382 25.716 140.63 25.932C140.878 26.148 141.234 26.256 141.698 26.256C141.97 26.256 142.23 26.208 142.478 26.112C142.726 26.008 142.93 25.84 143.09 25.608C143.258 25.368 143.35 25.04 143.366 24.624L143.678 25.08C143.638 25.536 143.526 25.92 143.342 26.232C143.166 26.536 142.918 26.768 142.598 26.928C142.286 27.088 141.906 27.168 141.458 27.168ZM149.968 27.216C149.44 27.216 148.968 27.1 148.552 26.868C148.144 26.636 147.82 26.3 147.58 25.86C147.34 25.412 147.208 24.876 147.184 24.252H147.496V27H146.584V18.24H147.736V22.5L147.328 23.376C147.36 22.68 147.5 22.112 147.748 21.672C147.996 21.232 148.32 20.908 148.72 20.7C149.128 20.484 149.576 20.376 150.064 20.376C150.52 20.376 150.936 20.464 151.312 20.64C151.688 20.808 152.012 21.044 152.284 21.348C152.556 21.644 152.764 21.992 152.908 22.392C153.052 22.784 153.124 23.208 153.124 23.664V23.88C153.124 24.336 153.048 24.764 152.896 25.164C152.752 25.564 152.54 25.92 152.26 26.232C151.98 26.536 151.644 26.776 151.252 26.952C150.868 27.128 150.44 27.216 149.968 27.216ZM149.836 26.208C150.268 26.208 150.644 26.104 150.964 25.896C151.284 25.688 151.532 25.404 151.708 25.044C151.884 24.676 151.972 24.252 151.972 23.772C151.972 23.292 151.88 22.872 151.696 22.512C151.52 22.152 151.272 21.876 150.952 21.684C150.632 21.484 150.26 21.384 149.836 21.384C149.452 21.384 149.096 21.472 148.768 21.648C148.44 21.816 148.176 22.064 147.976 22.392C147.784 22.712 147.688 23.1 147.688 23.556V24.108C147.688 24.548 147.788 24.924 147.988 25.236C148.188 25.548 148.452 25.788 148.78 25.956C149.108 26.124 149.46 26.208 149.836 26.208ZM154.93 27V18.24H156.082V27H154.93ZM154.042 19.152V18.24H156.082V19.152H154.042ZM161.016 27.216C160.456 27.216 159.972 27.12 159.564 26.928C159.156 26.736 158.824 26.484 158.568 26.172C158.312 25.852 158.12 25.496 157.992 25.104C157.872 24.712 157.812 24.312 157.812 23.904V23.688C157.812 23.272 157.872 22.868 157.992 22.476C158.12 22.084 158.312 21.732 158.568 21.42C158.824 21.1 159.148 20.848 159.54 20.664C159.94 20.472 160.408 20.376 160.944 20.376C161.64 20.376 162.212 20.528 162.66 20.832C163.116 21.128 163.452 21.512 163.668 21.984C163.892 22.456 164.004 22.96 164.004 23.496V24.012H158.316V23.148H163.164L162.9 23.616C162.9 23.16 162.828 22.768 162.684 22.44C162.54 22.104 162.324 21.844 162.036 21.66C161.748 21.476 161.384 21.384 160.944 21.384C160.488 21.384 160.108 21.488 159.804 21.696C159.508 21.904 159.284 22.188 159.132 22.548C158.988 22.908 158.916 23.324 158.916 23.796C158.916 24.252 158.988 24.664 159.132 25.032C159.284 25.392 159.516 25.68 159.828 25.896C160.14 26.104 160.536 26.208 161.016 26.208C161.52 26.208 161.928 26.096 162.24 25.872C162.56 25.648 162.752 25.388 162.816 25.092H163.896C163.808 25.532 163.632 25.912 163.368 26.232C163.104 26.552 162.772 26.796 162.372 26.964C161.972 27.132 161.52 27.216 161.016 27.216ZM171.322 27.216C170.762 27.216 170.27 27.12 169.846 26.928C169.422 26.736 169.062 26.484 168.766 26.172C168.478 25.852 168.258 25.496 168.106 25.104C167.962 24.712 167.89 24.312 167.89 23.904V23.688C167.89 23.28 167.966 22.88 168.118 22.488C168.27 22.088 168.494 21.732 168.79 21.42C169.086 21.1 169.446 20.848 169.87 20.664C170.294 20.472 170.778 20.376 171.322 20.376C171.866 20.376 172.35 20.472 172.774 20.664C173.198 20.848 173.558 21.1 173.854 21.42C174.15 21.732 174.374 22.088 174.526 22.488C174.678 22.88 174.754 23.28 174.754 23.688V23.904C174.754 24.312 174.678 24.712 174.526 25.104C174.382 25.496 174.162 25.852 173.866 26.172C173.578 26.484 173.222 26.736 172.798 26.928C172.374 27.12 171.882 27.216 171.322 27.216ZM171.322 26.184C171.802 26.184 172.21 26.08 172.546 25.872C172.89 25.656 173.15 25.368 173.326 25.008C173.51 24.648 173.602 24.244 173.602 23.796C173.602 23.34 173.51 22.932 173.326 22.572C173.142 22.212 172.878 21.928 172.534 21.72C172.198 21.512 171.794 21.408 171.322 21.408C170.858 21.408 170.454 21.512 170.11 21.72C169.766 21.928 169.502 22.212 169.318 22.572C169.134 22.932 169.042 23.34 169.042 23.796C169.042 24.244 169.13 24.648 169.306 25.008C169.49 25.368 169.75 25.656 170.086 25.872C170.43 26.08 170.842 26.184 171.322 26.184ZM176.479 27V20.592H177.391V23.34H177.247C177.247 22.708 177.331 22.176 177.499 21.744C177.675 21.304 177.939 20.972 178.291 20.748C178.643 20.516 179.087 20.4 179.623 20.4H179.671C180.479 20.4 181.075 20.652 181.459 21.156C181.851 21.66 182.047 22.388 182.047 23.34V27H180.895V23.1C180.895 22.604 180.755 22.208 180.475 21.912C180.195 21.608 179.811 21.456 179.323 21.456C178.819 21.456 178.411 21.612 178.099 21.924C177.787 22.236 177.631 22.652 177.631 23.172V27H176.479Z" fill="white"/>
<path d="M73.848 49.304C72.8027 49.304 71.8907 49.1333 71.112 48.792C70.3333 48.44 69.688 47.9707 69.176 47.384C68.6747 46.7973 68.3013 46.1467 68.056 45.432C67.8107 44.7173 67.688 44.0027 67.688 43.288V42.936C67.688 42.2 67.8107 41.48 68.056 40.776C68.3013 40.072 68.6693 39.432 69.16 38.856C69.6613 38.28 70.28 37.8213 71.016 37.48C71.7627 37.1387 72.6213 36.968 73.592 36.968C74.648 36.968 75.5813 37.1653 76.392 37.56C77.2027 37.944 77.8533 38.4827 78.344 39.176C78.8347 39.8587 79.1173 40.6533 79.192 41.56H76.568C76.504 41.1333 76.3333 40.76 76.056 40.44C75.7893 40.12 75.4427 39.8693 75.016 39.688C74.6 39.5067 74.1253 39.416 73.592 39.416C73.08 39.416 72.6213 39.5067 72.216 39.688C71.8213 39.8693 71.48 40.1253 71.192 40.456C70.9147 40.7867 70.7013 41.1813 70.552 41.64C70.4133 42.088 70.344 42.584 70.344 43.128C70.344 43.6933 70.4187 44.2107 70.568 44.68C70.728 45.1387 70.9573 45.5387 71.256 45.88C71.5547 46.2107 71.9227 46.4667 72.36 46.648C72.808 46.8293 73.304 46.92 73.848 46.92C74.5733 46.92 75.2027 46.7707 75.736 46.472C76.2693 46.1733 76.6533 45.7787 76.888 45.288L76.568 47.08V44.296H78.984V46.792C78.4827 47.6027 77.7893 48.2267 76.904 48.664C76.0293 49.0907 75.0107 49.304 73.848 49.304ZM73.512 44.808V42.92H79.944V44.808H73.512ZM87.8481 49.304C87.0801 49.304 86.3975 49.1867 85.8001 48.952C85.2028 48.7067 84.6961 48.376 84.2801 47.96C83.8748 47.544 83.5655 47.0693 83.3521 46.536C83.1388 45.992 83.0321 45.4213 83.0321 44.824V44.456C83.0321 43.848 83.1388 43.272 83.3521 42.728C83.5761 42.1733 83.8961 41.688 84.3121 41.272C84.7388 40.856 85.2508 40.5307 85.8481 40.296C86.4455 40.0507 87.1121 39.928 87.8481 39.928C88.6055 39.928 89.2775 40.0507 89.8641 40.296C90.4615 40.5307 90.9681 40.856 91.3841 41.272C91.8001 41.688 92.1201 42.1733 92.3441 42.728C92.5681 43.272 92.6801 43.848 92.6801 44.456V44.824C92.6801 45.4213 92.5735 45.992 92.3601 46.536C92.1468 47.0693 91.8321 47.544 91.4161 47.96C91.0108 48.376 90.5095 48.7067 89.9121 48.952C89.3148 49.1867 88.6268 49.304 87.8481 49.304ZM87.8481 47.144C88.3495 47.144 88.7655 47.0373 89.0961 46.824C89.4268 46.6107 89.6775 46.312 89.8481 45.928C90.0295 45.544 90.1201 45.1173 90.1201 44.648C90.1201 44.1467 90.0295 43.7093 89.8481 43.336C89.6668 42.952 89.4055 42.648 89.0641 42.424C88.7335 42.2 88.3281 42.088 87.8481 42.088C87.3788 42.088 86.9735 42.2 86.6321 42.424C86.2908 42.648 86.0295 42.952 85.8481 43.336C85.6775 43.7093 85.5921 44.1467 85.5921 44.648C85.5921 45.1173 85.6775 45.544 85.8481 45.928C86.0188 46.312 86.2748 46.6107 86.6161 46.824C86.9575 47.0373 87.3681 47.144 87.8481 47.144ZM100.819 49.304C100.051 49.304 99.3681 49.1867 98.7708 48.952C98.1734 48.7067 97.6667 48.376 97.2507 47.96C96.8454 47.544 96.5361 47.0693 96.3227 46.536C96.1094 45.992 96.0027 45.4213 96.0027 44.824V44.456C96.0027 43.848 96.1094 43.272 96.3227 42.728C96.5467 42.1733 96.8667 41.688 97.2827 41.272C97.7094 40.856 98.2214 40.5307 98.8187 40.296C99.4161 40.0507 100.083 39.928 100.819 39.928C101.576 39.928 102.248 40.0507 102.835 40.296C103.432 40.5307 103.939 40.856 104.355 41.272C104.771 41.688 105.091 42.1733 105.315 42.728C105.539 43.272 105.651 43.848 105.651 44.456V44.824C105.651 45.4213 105.544 45.992 105.331 46.536C105.117 47.0693 104.803 47.544 104.387 47.96C103.981 48.376 103.48 48.7067 102.883 48.952C102.285 49.1867 101.597 49.304 100.819 49.304ZM100.819 47.144C101.32 47.144 101.736 47.0373 102.067 46.824C102.397 46.6107 102.648 46.312 102.819 45.928C103 45.544 103.091 45.1173 103.091 44.648C103.091 44.1467 103 43.7093 102.819 43.336C102.637 42.952 102.376 42.648 102.035 42.424C101.704 42.2 101.299 42.088 100.819 42.088C100.349 42.088 99.9441 42.2 99.6027 42.424C99.2614 42.648 99.0001 42.952 98.8187 43.336C98.6481 43.7093 98.5628 44.1467 98.5628 44.648C98.5628 45.1173 98.6481 45.544 98.8187 45.928C98.9894 46.312 99.2454 46.6107 99.5868 46.824C99.9281 47.0373 100.339 47.144 100.819 47.144ZM112.973 52.488C112.547 52.488 112.109 52.472 111.661 52.44C111.213 52.408 110.803 52.3653 110.429 52.312V50.152C110.803 50.2053 111.213 50.248 111.661 50.28C112.12 50.3227 112.536 50.344 112.909 50.344C113.603 50.344 114.163 50.264 114.589 50.104C115.027 49.944 115.347 49.6987 115.549 49.368C115.752 49.048 115.853 48.632 115.853 48.12V46.376L116.317 45.352C116.296 46.1307 116.141 46.7973 115.853 47.352C115.576 47.9067 115.187 48.3333 114.685 48.632C114.184 48.92 113.587 49.064 112.893 49.064C112.296 49.064 111.752 48.9573 111.261 48.744C110.781 48.52 110.371 48.2107 110.029 47.816C109.688 47.4213 109.427 46.9627 109.245 46.44C109.064 45.9067 108.973 45.3307 108.973 44.712V44.344C108.973 43.7253 109.069 43.1493 109.261 42.616C109.453 42.0827 109.731 41.6187 110.093 41.224C110.456 40.8293 110.888 40.5253 111.389 40.312C111.891 40.088 112.445 39.976 113.053 39.976C113.757 39.976 114.365 40.1307 114.877 40.44C115.4 40.7493 115.811 41.2027 116.109 41.8C116.408 42.3973 116.568 43.1173 116.589 43.96L116.237 44.056V40.232H118.269V47.96C118.269 49.0373 118.077 49.9067 117.693 50.568C117.309 51.2293 116.723 51.7147 115.933 52.024C115.155 52.3333 114.168 52.488 112.973 52.488ZM113.693 46.904C114.088 46.904 114.445 46.8187 114.765 46.648C115.085 46.4667 115.336 46.2107 115.517 45.88C115.709 45.5493 115.805 45.1493 115.805 44.68V44.216C115.805 43.7573 115.704 43.3733 115.501 43.064C115.309 42.744 115.053 42.504 114.733 42.344C114.413 42.1733 114.072 42.088 113.709 42.088C113.283 42.088 112.904 42.1893 112.573 42.392C112.243 42.5947 111.987 42.8773 111.805 43.24C111.624 43.6027 111.533 44.0293 111.533 44.52C111.533 45.0213 111.624 45.4533 111.805 45.816C111.997 46.168 112.253 46.44 112.573 46.632C112.904 46.8133 113.277 46.904 113.693 46.904ZM122.678 49V37.32H125.254V49H122.678ZM121.638 39.208V37.32H125.254V39.208H121.638ZM133.709 49.304C132.962 49.304 132.301 49.176 131.725 48.92C131.16 48.664 130.685 48.3227 130.301 47.896C129.928 47.4587 129.64 46.9733 129.437 46.44C129.245 45.896 129.149 45.3413 129.149 44.776V44.456C129.149 43.8693 129.245 43.3093 129.437 42.776C129.64 42.232 129.928 41.7467 130.301 41.32C130.674 40.8933 131.138 40.5573 131.693 40.312C132.258 40.056 132.898 39.928 133.613 39.928C134.552 39.928 135.341 40.1413 135.981 40.568C136.632 40.984 137.128 41.5333 137.469 42.216C137.81 42.888 137.981 43.624 137.981 44.424V45.288H130.221V43.832H136.429L135.597 44.504C135.597 43.9813 135.522 43.5333 135.373 43.16C135.224 42.7867 135 42.504 134.701 42.312C134.413 42.1093 134.05 42.008 133.613 42.008C133.165 42.008 132.786 42.1093 132.477 42.312C132.168 42.5147 131.933 42.8133 131.773 43.208C131.613 43.592 131.533 44.0667 131.533 44.632C131.533 45.1547 131.608 45.6133 131.757 46.008C131.906 46.392 132.141 46.6907 132.461 46.904C132.781 47.1173 133.197 47.224 133.709 47.224C134.178 47.224 134.562 47.1333 134.861 46.952C135.16 46.7707 135.362 46.5467 135.469 46.28H137.821C137.693 46.8667 137.442 47.3893 137.069 47.848C136.696 48.3067 136.226 48.664 135.661 48.92C135.096 49.176 134.445 49.304 133.709 49.304ZM149.645 45.656V43.384H151.741C152.146 43.384 152.493 43.304 152.781 43.144C153.079 42.984 153.309 42.76 153.469 42.472C153.629 42.1733 153.709 41.832 153.709 41.448C153.709 41.0427 153.629 40.696 153.469 40.408C153.309 40.1093 153.079 39.8853 152.781 39.736C152.493 39.576 152.146 39.496 151.741 39.496H149.645V37.224H151.613C152.605 37.224 153.453 37.3893 154.157 37.72C154.871 38.0507 155.415 38.52 155.789 39.128C156.173 39.736 156.365 40.4667 156.365 41.32V41.576C156.365 42.408 156.173 43.1333 155.789 43.752C155.415 44.36 154.871 44.8293 154.157 45.16C153.453 45.4907 152.605 45.656 151.613 45.656H149.645ZM147.341 49V37.224H149.965V49H147.341ZM160.061 49V37.32H162.637V49H160.061ZM159.021 39.208V37.32H162.637V39.208H159.021ZM172.372 49V46.408H171.94V43.592C171.94 43.144 171.833 42.808 171.62 42.584C171.406 42.36 171.065 42.248 170.596 42.248C170.361 42.248 170.052 42.2533 169.668 42.264C169.284 42.2747 168.889 42.2907 168.484 42.312C168.078 42.3333 167.71 42.3547 167.38 42.376V40.216C167.625 40.1947 167.913 40.1733 168.244 40.152C168.574 40.1307 168.916 40.1147 169.268 40.104C169.62 40.0933 169.95 40.088 170.26 40.088C171.156 40.088 171.908 40.216 172.516 40.472C173.134 40.728 173.604 41.1173 173.924 41.64C174.244 42.152 174.404 42.8133 174.404 43.624V49H172.372ZM169.572 49.224C168.942 49.224 168.388 49.112 167.908 48.888C167.438 48.664 167.07 48.344 166.804 47.928C166.537 47.5013 166.404 46.9947 166.404 46.408C166.404 45.768 166.569 45.2453 166.9 44.84C167.23 44.424 167.694 44.12 168.292 43.928C168.889 43.7253 169.577 43.624 170.356 43.624H172.228V45.048H170.34C169.892 45.048 169.545 45.16 169.3 45.384C169.065 45.5973 168.948 45.8907 168.948 46.264C168.948 46.616 169.065 46.904 169.3 47.128C169.545 47.3413 169.892 47.448 170.34 47.448C170.628 47.448 170.884 47.4 171.108 47.304C171.342 47.1973 171.534 47.0213 171.684 46.776C171.833 46.5307 171.918 46.1893 171.94 45.752L172.548 46.392C172.494 47 172.345 47.512 172.1 47.928C171.865 48.344 171.534 48.664 171.108 48.888C170.692 49.112 170.18 49.224 169.572 49.224ZM178.403 52.472V50.296H180.227C180.505 50.296 180.739 50.2587 180.931 50.184C181.123 50.12 181.278 50.008 181.395 49.848C181.513 49.688 181.609 49.4693 181.683 49.192L183.843 40.232H186.275L183.827 49.704C183.657 50.3867 183.417 50.9307 183.107 51.336C182.809 51.7413 182.403 52.0293 181.891 52.2C181.39 52.3813 180.75 52.472 179.971 52.472H178.403ZM181.155 48.808V46.808H183.011V48.808H181.155ZM180.099 48.808L177.411 40.232H179.987L182.531 48.808H180.099Z" fill="white"/>
</svg>
