<svg width="33" height="33" viewBox="0 0 33 33" fill="none" xmlns="http://www.w3.org/2000/svg">
<g clip-path="url(#clip0_319_2076)">
<path d="M21.0676 16.0092C21.0676 17.2822 20.5619 18.5031 19.6617 19.4033C18.7615 20.3035 17.5406 20.8092 16.2676 20.8092C14.9946 20.8092 13.7737 20.3035 12.8735 19.4033C11.9733 18.5031 11.4676 17.2822 11.4676 16.0092C11.4676 15.7356 11.4964 15.4684 11.546 15.2092H9.86759V21.6044C9.86759 22.0492 10.2276 22.4092 10.6724 22.4092H21.8644C22.0776 22.4087 22.2819 22.3238 22.4324 22.1729C22.583 22.022 22.6676 21.8175 22.6676 21.6044V15.2092H20.9892C21.0388 15.4684 21.0676 15.7356 21.0676 16.0092ZM16.2676 19.2092C16.6879 19.2091 17.1041 19.1262 17.4924 18.9652C17.8807 18.8043 18.2335 18.5684 18.5307 18.2711C18.8278 17.9738 19.0635 17.6209 19.2243 17.2325C19.385 16.8441 19.4677 16.4279 19.4676 16.0076C19.4675 15.5872 19.3846 15.171 19.2236 14.7827C19.0627 14.3944 18.8268 14.0416 18.5295 13.7445C18.2322 13.4474 17.8793 13.2117 17.4909 13.0509C17.1026 12.8902 16.6863 12.8075 16.266 12.8076C15.4171 12.8078 14.603 13.1452 14.0029 13.7456C13.4028 14.346 13.0658 15.1603 13.066 16.0092C13.0662 16.8581 13.4036 17.6721 14.0041 18.2722C14.6045 18.8724 15.4187 19.2094 16.2676 19.2092ZM20.1076 12.6492H22.026C22.1534 12.6492 22.2757 12.5986 22.366 12.5087C22.4562 12.4187 22.5072 12.2966 22.5076 12.1692V10.2508C22.5076 10.123 22.4569 10.0005 22.3665 9.91023C22.2762 9.81991 22.1537 9.76917 22.026 9.76917H20.1076C19.9799 9.76917 19.8574 9.81991 19.767 9.91023C19.6767 10.0005 19.626 10.123 19.626 10.2508V12.1692C19.6276 12.4332 19.8436 12.6492 20.1076 12.6492ZM16.2676 0.64917C12.1939 0.64917 8.28699 2.26745 5.40643 5.14801C2.52587 8.02857 0.907593 11.9354 0.907593 16.0092C0.907593 20.0829 2.52587 23.9898 5.40643 26.8703C8.28699 29.7509 12.1939 31.3692 16.2676 31.3692C18.2847 31.3692 20.2821 30.9719 22.1456 30.2C24.0092 29.428 25.7024 28.2966 27.1288 26.8703C28.5551 25.444 29.6865 23.7507 30.4584 21.8872C31.2303 20.0236 31.6276 18.0263 31.6276 16.0092C31.6276 13.9921 31.2303 11.9947 30.4584 10.1312C29.6865 8.26759 28.5551 6.57432 27.1288 5.14801C25.7024 3.7217 24.0092 2.59029 22.1456 1.81838C20.2821 1.04647 18.2847 0.64917 16.2676 0.64917ZM24.2676 22.2316C24.2676 23.2092 23.4676 24.0092 22.49 24.0092H10.0452C9.06759 24.0092 8.26759 23.2092 8.26759 22.2316V9.78677C8.26759 8.80917 9.06759 8.00917 10.0452 8.00917H22.49C23.4676 8.00917 24.2676 8.80917 24.2676 9.78677V22.2316Z" fill="url(#paint0_linear_319_2076)"/>
</g>
<defs>
<linearGradient id="paint0_linear_319_2076" x1="1.37609" y1="4.85897" x2="28.9377" y2="10.0471" gradientUnits="userSpaceOnUse">
<stop offset="0.0420982" stop-color="#FDCE7B"/>
<stop offset="1" stop-color="#CD8D03"/>
</linearGradient>
<clipPath id="clip0_319_2076">
<rect width="32" height="32" fill="white" transform="translate(0.267578 0.00927734)"/>
</clipPath>
</defs>
</svg>
